<?xml version='1.0' encoding='utf-8'?>
<mxfile host="app.diagrams.net"><diagram name="Immobilien Microservices"><mxGraphModel dx="1222" dy="717" grid="1" gridSize="10" guides="1" tooltips="1" connect="1" arrows="1" fold="1" page="1" pageScale="1" pageWidth="827" pageHeight="1169" math="0" shadow="0"><root><mxCell id="0" /><mxCell id="1" parent="0" /><mxCell id="2" value="🔐 Keycloak Auth" style="shape=swimlane;fillColor=#dae8fc" parent="1" vertex="1"><mxGeometry x="40" y="40" width="160" height="80" as="geometry" /></mxCell><mxCell id="3" value="🌐 API Gateway" style="shape=process;fillColor=#f8cecc" parent="1" vertex="1"><mxGeometry x="220" y="40" width="160" height="80" as="geometry" /></mxCell><mxCell id="4" value="🏢 Apartment Service" style="shape=process;fillColor=#d5e8d4" parent="1" vertex="1"><mxGeometry x="400" y="20" width="180" height="60" as="geometry" /></mxCell><mxCell id="5" value="🏠 House Service" style="shape=process;fillColor=#d5e8d4" parent="1" vertex="1"><mxGeometry x="400" y="100" width="180" height="60" as="geometry" /></mxCell><mxCell id="6" value="📍 Geo Service" style="shape=process;fillColor=#fff2cc" parent="1" vertex="1"><mxGeometry x="600" y="60" width="160" height="60" as="geometry" /></mxCell><mxCell id="7" value="⚙️ Config (application-prod.yml)" style="shape=document;fillColor=#e1d5e7" parent="1" vertex="1"><mxGeometry x="40" y="150" width="200" height="60" as="geometry" /></mxCell><mxCell id="8" value="☸️ Kubernetes&#10;(SPRING_PROFILES_ACTIVE)" style="shape=cloud;fillColor=#f5f5f5" parent="1" vertex="1"><mxGeometry x="300" y="200" width="400" height="100" as="geometry" /></mxCell></root></mxGraphModel></diagram></mxfile>